<svg id="visual" viewBox="0 0 900 600" width="900" height="600" xmlns="http://www.w3.org/2000/svg" xmlns:xlink="http://www.w3.org/1999/xlink" version="1.1"><g stroke-width="1" stroke-linejoin="bevel"><path d="M378 313L318 379L369 400Z" fill="#297ea6" stroke="#297ea6"></path><path d="M378 313L267 309L318 379Z" fill="#081a28" stroke="#081a28"></path><path d="M218 412L333 461L318 379Z" fill="#081a28" stroke="#081a28"></path><path d="M318 379L333 461L369 400Z" fill="#112e42" stroke="#112e42"></path><path d="M333 461L368 489L369 400Z" fill="#297ea6" stroke="#297ea6"></path><path d="M538 431L529 288L378 313Z" fill="#081a28" stroke="#081a28"></path><path d="M267 309L218 412L318 379Z" fill="#277297" stroke="#277297"></path><path d="M302 600L369 600L368 489Z" fill="#0c2435" stroke="#0c2435"></path><path d="M378 313L311 184L267 309Z" fill="#081a28" stroke="#081a28"></path><path d="M267 309L130 337L218 412Z" fill="#00101c" stroke="#00101c"></path><path d="M311 184L227 229L267 309Z" fill="#112e42" stroke="#112e42"></path><path d="M538 431L378 313L369 400Z" fill="#205a7a" stroke="#205a7a"></path><path d="M378 313L390 166L311 184Z" fill="#0c2435" stroke="#0c2435"></path><path d="M227 229L196 263L267 309Z" fill="#0c2435" stroke="#0c2435"></path><path d="M529 288L485 215L378 313Z" fill="#277297" stroke="#277297"></path><path d="M485 215L390 166L378 313Z" fill="#205a7a" stroke="#205a7a"></path><path d="M368 489L538 431L369 400Z" fill="#112e42" stroke="#112e42"></path><path d="M100 369L183 486L218 412Z" fill="#205a7a" stroke="#205a7a"></path><path d="M218 412L183 486L333 461Z" fill="#277297" stroke="#277297"></path><path d="M368 489L478 538L538 431Z" fill="#15384f" stroke="#15384f"></path><path d="M369 600L478 538L368 489Z" fill="#112e42" stroke="#112e42"></path><path d="M196 263L130 337L267 309Z" fill="#246688" stroke="#246688"></path><path d="M302 600L368 489L333 461Z" fill="#00101c" stroke="#00101c"></path><path d="M234 600L302 600L333 461Z" fill="#277297" stroke="#277297"></path><path d="M130 337L100 369L218 412Z" fill="#081a28" stroke="#081a28"></path><path d="M0 328L100 369L130 337Z" fill="#112e42" stroke="#112e42"></path><path d="M639 411L615 333L538 431Z" fill="#246688" stroke="#246688"></path><path d="M538 431L615 333L529 288Z" fill="#00101c" stroke="#00101c"></path><path d="M629 175L505 124L485 215Z" fill="#19435d" stroke="#19435d"></path><path d="M594 600L582 484L478 538Z" fill="#246688" stroke="#246688"></path><path d="M478 538L582 484L538 431Z" fill="#205a7a" stroke="#205a7a"></path><path d="M485 215L429 102L390 166Z" fill="#246688" stroke="#246688"></path><path d="M390 166L337 71L311 184Z" fill="#00101c" stroke="#00101c"></path><path d="M311 184L184 72L227 229Z" fill="#205a7a" stroke="#205a7a"></path><path d="M505 124L429 102L485 215Z" fill="#081a28" stroke="#081a28"></path><path d="M369 600L468 600L478 538Z" fill="#00101c" stroke="#00101c"></path><path d="M629 175L485 215L529 288Z" fill="#19435d" stroke="#19435d"></path><path d="M183 486L234 600L333 461Z" fill="#15384f" stroke="#15384f"></path><path d="M113 600L234 600L183 486Z" fill="#15384f" stroke="#15384f"></path><path d="M379 0L337 71L429 102Z" fill="#246688" stroke="#246688"></path><path d="M429 102L337 71L390 166Z" fill="#081a28" stroke="#081a28"></path><path d="M227 229L93 236L196 263Z" fill="#00101c" stroke="#00101c"></path><path d="M196 263L93 236L130 337Z" fill="#00101c" stroke="#00101c"></path><path d="M582 484L639 411L538 431Z" fill="#112e42" stroke="#112e42"></path><path d="M124 92L93 236L227 229Z" fill="#277297" stroke="#277297"></path><path d="M0 463L104 515L100 369Z" fill="#15384f" stroke="#15384f"></path><path d="M100 369L104 515L183 486Z" fill="#19435d" stroke="#19435d"></path><path d="M594 600L662 467L582 484Z" fill="#0c2435" stroke="#0c2435"></path><path d="M582 484L662 467L639 411Z" fill="#081a28" stroke="#081a28"></path><path d="M693 292L629 175L615 333Z" fill="#297ea6" stroke="#297ea6"></path><path d="M615 333L629 175L529 288Z" fill="#19435d" stroke="#19435d"></path><path d="M688 379L615 333L639 411Z" fill="#297ea6" stroke="#297ea6"></path><path d="M662 467L688 379L639 411Z" fill="#15384f" stroke="#15384f"></path><path d="M337 71L184 72L311 184Z" fill="#112e42" stroke="#112e42"></path><path d="M629 175L600 118L505 124Z" fill="#1d4e6b" stroke="#1d4e6b"></path><path d="M496 0L379 0L429 102Z" fill="#277297" stroke="#277297"></path><path d="M468 600L594 600L478 538Z" fill="#297ea6" stroke="#297ea6"></path><path d="M688 379L693 292L615 333Z" fill="#19435d" stroke="#19435d"></path><path d="M629 175L671 80L600 118Z" fill="#19435d" stroke="#19435d"></path><path d="M104 515L113 600L183 486Z" fill="#19435d" stroke="#19435d"></path><path d="M184 72L124 92L227 229Z" fill="#297ea6" stroke="#297ea6"></path><path d="M496 0L429 102L505 124Z" fill="#0c2435" stroke="#0c2435"></path><path d="M337 71L280 0L184 72Z" fill="#19435d" stroke="#19435d"></path><path d="M184 72L87 0L124 92Z" fill="#15384f" stroke="#15384f"></path><path d="M0 222L0 328L93 236Z" fill="#15384f" stroke="#15384f"></path><path d="M93 236L0 328L130 337Z" fill="#19435d" stroke="#19435d"></path><path d="M104 515L0 600L113 600Z" fill="#0c2435" stroke="#0c2435"></path><path d="M0 328L0 407L100 369Z" fill="#246688" stroke="#246688"></path><path d="M379 0L280 0L337 71Z" fill="#277297" stroke="#277297"></path><path d="M0 407L0 463L100 369Z" fill="#205a7a" stroke="#205a7a"></path><path d="M280 0L232 0L184 72Z" fill="#246688" stroke="#246688"></path><path d="M588 0L496 0L505 124Z" fill="#246688" stroke="#246688"></path><path d="M124 92L0 222L93 236Z" fill="#00101c" stroke="#00101c"></path><path d="M662 467L766 390L688 379Z" fill="#112e42" stroke="#112e42"></path><path d="M688 379L766 390L693 292Z" fill="#00101c" stroke="#00101c"></path><path d="M736 163L671 80L629 175Z" fill="#277297" stroke="#277297"></path><path d="M806 510L766 390L662 467Z" fill="#205a7a" stroke="#205a7a"></path><path d="M736 163L629 175L693 292Z" fill="#00101c" stroke="#00101c"></path><path d="M600 118L588 0L505 124Z" fill="#277297" stroke="#277297"></path><path d="M671 80L588 0L600 118Z" fill="#15384f" stroke="#15384f"></path><path d="M774 217L736 163L693 292Z" fill="#112e42" stroke="#112e42"></path><path d="M594 600L707 600L662 467Z" fill="#112e42" stroke="#112e42"></path><path d="M0 463L0 600L104 515Z" fill="#246688" stroke="#246688"></path><path d="M806 298L774 217L693 292Z" fill="#19435d" stroke="#19435d"></path><path d="M232 0L87 0L184 72Z" fill="#246688" stroke="#246688"></path><path d="M124 92L0 70L0 222Z" fill="#15384f" stroke="#15384f"></path><path d="M900 391L806 298L766 390Z" fill="#0c2435" stroke="#0c2435"></path><path d="M766 390L806 298L693 292Z" fill="#15384f" stroke="#15384f"></path><path d="M87 0L0 70L124 92Z" fill="#1d4e6b" stroke="#1d4e6b"></path><path d="M707 600L806 510L662 467Z" fill="#081a28" stroke="#081a28"></path><path d="M87 0L0 0L0 70Z" fill="#205a7a" stroke="#205a7a"></path><path d="M825 103L736 163L774 217Z" fill="#19435d" stroke="#19435d"></path><path d="M825 103L671 80L736 163Z" fill="#297ea6" stroke="#297ea6"></path><path d="M825 103L735 0L671 80Z" fill="#00101c" stroke="#00101c"></path><path d="M671 80L735 0L588 0Z" fill="#081a28" stroke="#081a28"></path><path d="M707 600L815 600L806 510Z" fill="#205a7a" stroke="#205a7a"></path><path d="M900 476L900 391L766 390Z" fill="#1d4e6b" stroke="#1d4e6b"></path><path d="M900 138L825 103L774 217Z" fill="#19435d" stroke="#19435d"></path><path d="M900 225L774 217L806 298Z" fill="#246688" stroke="#246688"></path><path d="M900 476L766 390L806 510Z" fill="#0c2435" stroke="#0c2435"></path><path d="M900 391L900 290L806 298Z" fill="#246688" stroke="#246688"></path><path d="M900 600L900 476L806 510Z" fill="#277297" stroke="#277297"></path><path d="M900 290L900 225L806 298Z" fill="#246688" stroke="#246688"></path><path d="M900 0L815 0L825 103Z" fill="#277297" stroke="#277297"></path><path d="M825 103L815 0L735 0Z" fill="#15384f" stroke="#15384f"></path><path d="M900 225L900 138L774 217Z" fill="#0c2435" stroke="#0c2435"></path><path d="M815 600L900 600L806 510Z" fill="#205a7a" stroke="#205a7a"></path><path d="M900 138L900 0L825 103Z" fill="#205a7a" stroke="#205a7a"></path></g></svg>