<svg id="visual" viewBox="0 0 900 600" width="900" height="600" xmlns="http://www.w3.org/2000/svg" xmlns:xlink="http://www.w3.org/1999/xlink" version="1.1"><g stroke-width="1" stroke-linejoin="bevel"><path d="M488 300L577 309L507 204Z" fill="#612e6c" stroke="#612e6c"></path><path d="M577 309L619 217L507 204Z" fill="#0e203c" stroke="#0e203c"></path><path d="M577 309L670 269L619 217Z" fill="#7b2d71" stroke="#7b2d71"></path><path d="M488 300L568 399L577 309Z" fill="#00101c" stroke="#00101c"></path><path d="M577 309L692 435L670 269Z" fill="#482d64" stroke="#482d64"></path><path d="M622 139L507 204L619 217Z" fill="#ae266f" stroke="#ae266f"></path><path d="M622 139L527 115L507 204Z" fill="#612e6c" stroke="#612e6c"></path><path d="M671 191L622 139L619 217Z" fill="#00101c" stroke="#00101c"></path><path d="M427 74L393 220L507 204Z" fill="#c62368" stroke="#c62368"></path><path d="M507 204L393 220L488 300Z" fill="#c62368" stroke="#c62368"></path><path d="M488 300L484 436L568 399Z" fill="#06192c" stroke="#06192c"></path><path d="M670 269L671 191L619 217Z" fill="#06192c" stroke="#06192c"></path><path d="M393 220L377 285L488 300Z" fill="#312a59" stroke="#312a59"></path><path d="M376 417L484 436L488 300Z" fill="#7b2d71" stroke="#7b2d71"></path><path d="M484 0L427 74L527 115Z" fill="#06192c" stroke="#06192c"></path><path d="M527 115L427 74L507 204Z" fill="#1e264b" stroke="#1e264b"></path><path d="M393 220L296 210L377 285Z" fill="#312a59" stroke="#312a59"></path><path d="M671 191L714 122L622 139Z" fill="#612e6c" stroke="#612e6c"></path><path d="M622 139L575 0L527 115Z" fill="#952a72" stroke="#952a72"></path><path d="M818 200L714 122L671 191Z" fill="#312a59" stroke="#312a59"></path><path d="M377 285L376 417L488 300Z" fill="#c62368" stroke="#c62368"></path><path d="M619 500L692 435L568 399Z" fill="#952a72" stroke="#952a72"></path><path d="M568 399L692 435L577 309Z" fill="#00101c" stroke="#00101c"></path><path d="M670 269L818 200L671 191Z" fill="#952a72" stroke="#952a72"></path><path d="M317 69L296 210L393 220Z" fill="#7b2d71" stroke="#7b2d71"></path><path d="M377 285L287 322L376 417Z" fill="#06192c" stroke="#06192c"></path><path d="M692 435L784 308L670 269Z" fill="#612e6c" stroke="#612e6c"></path><path d="M499 527L619 500L484 436Z" fill="#7b2d71" stroke="#7b2d71"></path><path d="M484 436L619 500L568 399Z" fill="#7b2d71" stroke="#7b2d71"></path><path d="M296 210L287 322L377 285Z" fill="#952a72" stroke="#952a72"></path><path d="M277 382L371 461L376 417Z" fill="#1e264b" stroke="#1e264b"></path><path d="M376 417L371 461L484 436Z" fill="#612e6c" stroke="#612e6c"></path><path d="M671 0L575 0L622 139Z" fill="#7b2d71" stroke="#7b2d71"></path><path d="M575 0L484 0L527 115Z" fill="#c62368" stroke="#c62368"></path><path d="M427 74L317 69L393 220Z" fill="#c62368" stroke="#c62368"></path><path d="M371 461L499 527L484 436Z" fill="#312a59" stroke="#312a59"></path><path d="M818 200L765 86L714 122Z" fill="#1e264b" stroke="#1e264b"></path><path d="M714 122L671 0L622 139Z" fill="#7b2d71" stroke="#7b2d71"></path><path d="M784 308L818 200L670 269Z" fill="#06192c" stroke="#06192c"></path><path d="M230 276L277 382L287 322Z" fill="#0e203c" stroke="#0e203c"></path><path d="M287 322L277 382L376 417Z" fill="#612e6c" stroke="#612e6c"></path><path d="M484 0L409 0L427 74Z" fill="#0e203c" stroke="#0e203c"></path><path d="M409 0L317 69L427 74Z" fill="#952a72" stroke="#952a72"></path><path d="M765 86L671 0L714 122Z" fill="#0e203c" stroke="#0e203c"></path><path d="M792 469L808 383L692 435Z" fill="#ae266f" stroke="#ae266f"></path><path d="M692 435L808 383L784 308Z" fill="#312a59" stroke="#312a59"></path><path d="M784 308L900 260L818 200Z" fill="#482d64" stroke="#482d64"></path><path d="M619 500L720 497L692 435Z" fill="#06192c" stroke="#06192c"></path><path d="M672 600L720 497L619 500Z" fill="#c62368" stroke="#c62368"></path><path d="M296 210L230 276L287 322Z" fill="#482d64" stroke="#482d64"></path><path d="M183 162L230 276L296 210Z" fill="#0e203c" stroke="#0e203c"></path><path d="M720 497L792 469L692 435Z" fill="#482d64" stroke="#482d64"></path><path d="M374 600L485 600L499 527Z" fill="#06192c" stroke="#06192c"></path><path d="M499 527L598 600L619 500Z" fill="#7b2d71" stroke="#7b2d71"></path><path d="M720 497L795 600L792 469Z" fill="#c62368" stroke="#c62368"></path><path d="M374 600L499 527L371 461Z" fill="#ae266f" stroke="#ae266f"></path><path d="M485 600L598 600L499 527Z" fill="#1e264b" stroke="#1e264b"></path><path d="M409 0L294 0L317 69Z" fill="#482d64" stroke="#482d64"></path><path d="M317 69L183 162L296 210Z" fill="#00101c" stroke="#00101c"></path><path d="M900 0L784 0L765 86Z" fill="#612e6c" stroke="#612e6c"></path><path d="M765 86L784 0L671 0Z" fill="#ae266f" stroke="#ae266f"></path><path d="M277 382L285 519L371 461Z" fill="#312a59" stroke="#312a59"></path><path d="M207 435L285 519L277 382Z" fill="#312a59" stroke="#312a59"></path><path d="M808 383L900 260L784 308Z" fill="#312a59" stroke="#312a59"></path><path d="M818 200L900 138L765 86Z" fill="#06192c" stroke="#06192c"></path><path d="M900 430L900 260L808 383Z" fill="#952a72" stroke="#952a72"></path><path d="M598 600L672 600L619 500Z" fill="#312a59" stroke="#312a59"></path><path d="M165 122L183 162L317 69Z" fill="#c62368" stroke="#c62368"></path><path d="M230 276L207 435L277 382Z" fill="#7b2d71" stroke="#7b2d71"></path><path d="M113 306L207 435L230 276Z" fill="#ae266f" stroke="#ae266f"></path><path d="M900 260L900 167L818 200Z" fill="#00101c" stroke="#00101c"></path><path d="M285 519L374 600L371 461Z" fill="#c62368" stroke="#c62368"></path><path d="M900 167L900 138L818 200Z" fill="#0e203c" stroke="#0e203c"></path><path d="M169 0L165 122L317 69Z" fill="#06192c" stroke="#06192c"></path><path d="M183 162L119 232L230 276Z" fill="#00101c" stroke="#00101c"></path><path d="M900 515L900 430L792 469Z" fill="#ae266f" stroke="#ae266f"></path><path d="M792 469L900 430L808 383Z" fill="#312a59" stroke="#312a59"></path><path d="M183 600L310 600L285 519Z" fill="#c62368" stroke="#c62368"></path><path d="M285 519L310 600L374 600Z" fill="#952a72" stroke="#952a72"></path><path d="M115 127L119 232L183 162Z" fill="#612e6c" stroke="#612e6c"></path><path d="M119 232L113 306L230 276Z" fill="#952a72" stroke="#952a72"></path><path d="M207 435L164 524L285 519Z" fill="#612e6c" stroke="#612e6c"></path><path d="M672 600L795 600L720 497Z" fill="#0e203c" stroke="#0e203c"></path><path d="M113 306L133 419L207 435Z" fill="#1e264b" stroke="#1e264b"></path><path d="M165 122L115 127L183 162Z" fill="#312a59" stroke="#312a59"></path><path d="M119 232L0 239L113 306Z" fill="#1e264b" stroke="#1e264b"></path><path d="M169 0L115 127L165 122Z" fill="#0e203c" stroke="#0e203c"></path><path d="M795 600L900 515L792 469Z" fill="#612e6c" stroke="#612e6c"></path><path d="M900 138L900 0L765 86Z" fill="#312a59" stroke="#312a59"></path><path d="M294 0L169 0L317 69Z" fill="#0e203c" stroke="#0e203c"></path><path d="M117 473L164 524L207 435Z" fill="#312a59" stroke="#312a59"></path><path d="M0 466L117 473L133 419Z" fill="#ae266f" stroke="#ae266f"></path><path d="M133 419L117 473L207 435Z" fill="#00101c" stroke="#00101c"></path><path d="M164 524L183 600L285 519Z" fill="#00101c" stroke="#00101c"></path><path d="M73 600L183 600L164 524Z" fill="#0e203c" stroke="#0e203c"></path><path d="M795 600L900 600L900 515Z" fill="#06192c" stroke="#06192c"></path><path d="M169 0L97 0L115 127Z" fill="#00101c" stroke="#00101c"></path><path d="M0 137L0 239L119 232Z" fill="#ae266f" stroke="#ae266f"></path><path d="M113 306L0 383L133 419Z" fill="#312a59" stroke="#312a59"></path><path d="M0 137L119 232L115 127Z" fill="#612e6c" stroke="#612e6c"></path><path d="M0 239L0 321L113 306Z" fill="#312a59" stroke="#312a59"></path><path d="M117 473L73 600L164 524Z" fill="#312a59" stroke="#312a59"></path><path d="M97 0L0 137L115 127Z" fill="#482d64" stroke="#482d64"></path><path d="M0 321L0 383L113 306Z" fill="#612e6c" stroke="#612e6c"></path><path d="M0 383L0 466L133 419Z" fill="#06192c" stroke="#06192c"></path><path d="M0 466L73 600L117 473Z" fill="#612e6c" stroke="#612e6c"></path><path d="M97 0L0 0L0 137Z" fill="#312a59" stroke="#312a59"></path><path d="M0 466L0 600L73 600Z" fill="#482d64" stroke="#482d64"></path></g></svg>